<?xml version="1.0" standalone="no"?>
<!DOCTYPE svg PUBLIC "-//W3C//DTD SVG 20010904//EN"
 "http://www.w3.org/TR/2001/REC-SVG-20010904/DTD/svg10.dtd">
<svg version="1.0" xmlns="http://www.w3.org/2000/svg"
 width="71.000000pt" height="71.000000pt" viewBox="0 0 71.000000 71.000000"
 preserveAspectRatio="xMidYMid meet">

<g transform="translate(0.000000,71.000000) scale(0.100000,-0.100000)"
fill="#000000" stroke="none">
<path d="M321 650 c-11 -25 -74 -162 -140 -305 l-120 -260 41 -3 c22 -2 46 -1
52 1 7 3 50 89 97 191 46 102 86 185 89 185 3 0 43 -84 90 -187 l85 -187 53
-3 c28 -2 52 -1 52 1 0 3 -42 96 -94 208 -51 112 -114 249 -139 304 l-46 100
-20 -45z"/>
</g>
</svg>
