<?xml version="1.0" standalone="no"?>
<!DOCTYPE svg PUBLIC "-//W3C//DTD SVG 20010904//EN"
 "http://www.w3.org/TR/2001/REC-SVG-20010904/DTD/svg10.dtd">
<svg version="1.0" xmlns="http://www.w3.org/2000/svg"
 width="103.000000pt" height="37.000000pt" viewBox="0 0 103.000000 37.000000"
 preserveAspectRatio="xMidYMid meet">

<g transform="translate(0.000000,37.000000) scale(0.100000,-0.100000)"
fill="#000000" stroke="none">
<path d="M112 194 c-45 -84 -82 -155 -82 -158 0 -4 9 -6 20 -6 16 0 33 27 82
130 33 72 64 130 67 129 3 0 34 -58 68 -130 50 -102 67 -129 83 -129 11 0 20
2 20 4 0 8 -162 306 -169 310 -3 2 -43 -65 -89 -150z"/>
<path d="M450 130 l0 -110 53 0 c72 0 101 17 105 60 3 24 -2 38 -14 47 -14 10
-15 16 -6 25 19 19 14 56 -10 72 -14 10 -44 16 -75 16 l-53 0 0 -110z m115 50
c0 -22 -5 -25 -42 -28 -42 -3 -43 -2 -43 28 0 30 1 31 43 28 37 -3 42 -6 42
-28z m10 -95 c0 -29 -2 -30 -47 -33 l-48 -3 0 36 0 36 48 -3 c45 -3 47 -4 47
-33z"/>
<path d="M640 231 c0 -6 15 -11 33 -13 l32 -3 3 -98 c2 -72 6 -97 15 -94 8 2
13 36 15 100 l3 97 34 0 c19 0 35 5 35 10 0 6 -35 10 -85 10 -47 0 -85 -4 -85
-9z"/>
<path d="M858 228 c-46 -38 -25 -82 47 -103 59 -18 75 -35 55 -60 -21 -26 -76
-19 -98 12 -19 26 -21 27 -28 9 -11 -28 37 -66 82 -66 36 0 84 36 84 62 0 30
-31 56 -81 68 -28 7 -53 19 -56 26 -15 40 66 62 89 24 13 -21 38 -27 38 -10 0
6 -9 19 -20 30 -23 23 -87 27 -112 8z"/>
</g>
</svg>
